<mxfile host="app.diagrams.net" modified="2023-12-03T07:53:24.263Z" agent="Mozilla/5.0 (Windows NT 10.0; Win64; x64) AppleWebKit/537.36 (KHTML, like Gecko) Chrome/119.0.0.0 Safari/537.36" etag="33oR_sKOCBTYo7eGqTE6" version="22.1.5" type="device">
  <diagram name="Trang-1" id="uqMX_FvtAAKJwyUMCowb">
    <mxGraphModel dx="1248" dy="604" grid="1" gridSize="10" guides="1" tooltips="1" connect="1" arrows="1" fold="1" page="1" pageScale="1" pageWidth="827" pageHeight="1169" math="0" shadow="0">
      <root>
        <mxCell id="0" />
        <mxCell id="1" parent="0" />
        <mxCell id="HVXSuRyXTCoJCIzgPhlQ-2" style="edgeStyle=orthogonalEdgeStyle;rounded=0;orthogonalLoop=1;jettySize=auto;html=1;" edge="1" parent="1" source="HVXSuRyXTCoJCIzgPhlQ-1">
          <mxGeometry relative="1" as="geometry">
            <mxPoint x="380" y="150" as="targetPoint" />
          </mxGeometry>
        </mxCell>
        <mxCell id="HVXSuRyXTCoJCIzgPhlQ-1" value="Start&amp;nbsp;&lt;br&gt;" style="ellipse;whiteSpace=wrap;html=1;" vertex="1" parent="1">
          <mxGeometry x="320" y="10" width="120" height="80" as="geometry" />
        </mxCell>
        <mxCell id="HVXSuRyXTCoJCIzgPhlQ-5" style="edgeStyle=orthogonalEdgeStyle;rounded=0;orthogonalLoop=1;jettySize=auto;html=1;" edge="1" parent="1" source="HVXSuRyXTCoJCIzgPhlQ-4" target="HVXSuRyXTCoJCIzgPhlQ-6">
          <mxGeometry relative="1" as="geometry">
            <mxPoint x="380" y="300" as="targetPoint" />
          </mxGeometry>
        </mxCell>
        <mxCell id="HVXSuRyXTCoJCIzgPhlQ-4" value="&amp;nbsp;Student&lt;br&gt;&lt;div&gt;name,numberPhone,email&lt;/div&gt;&lt;div&gt;age&lt;span style=&quot;&quot;&gt;&lt;/span&gt;&lt;/div&gt;" style="shape=parallelogram;perimeter=parallelogramPerimeter;whiteSpace=wrap;html=1;fixedSize=1;" vertex="1" parent="1">
          <mxGeometry x="235" y="150" width="290" height="80" as="geometry" />
        </mxCell>
        <mxCell id="HVXSuRyXTCoJCIzgPhlQ-7" style="edgeStyle=orthogonalEdgeStyle;rounded=0;orthogonalLoop=1;jettySize=auto;html=1;" edge="1" parent="1" source="HVXSuRyXTCoJCIzgPhlQ-6">
          <mxGeometry relative="1" as="geometry">
            <mxPoint x="380" y="430" as="targetPoint" />
          </mxGeometry>
        </mxCell>
        <mxCell id="HVXSuRyXTCoJCIzgPhlQ-6" value="name:.......&lt;br&gt;age:........&lt;br&gt;numberPhone:..........&lt;br&gt;email:............" style="rounded=0;whiteSpace=wrap;html=1;" vertex="1" parent="1">
          <mxGeometry x="262.5" y="300" width="235" height="70" as="geometry" />
        </mxCell>
        <mxCell id="HVXSuRyXTCoJCIzgPhlQ-9" style="edgeStyle=orthogonalEdgeStyle;rounded=0;orthogonalLoop=1;jettySize=auto;html=1;" edge="1" parent="1" source="HVXSuRyXTCoJCIzgPhlQ-8" target="HVXSuRyXTCoJCIzgPhlQ-10">
          <mxGeometry relative="1" as="geometry">
            <mxPoint x="372.5" y="540" as="targetPoint" />
          </mxGeometry>
        </mxCell>
        <mxCell id="HVXSuRyXTCoJCIzgPhlQ-8" value="Student st" style="shape=parallelogram;perimeter=parallelogramPerimeter;whiteSpace=wrap;html=1;fixedSize=1;" vertex="1" parent="1">
          <mxGeometry x="262.5" y="430" width="220" height="60" as="geometry" />
        </mxCell>
        <mxCell id="HVXSuRyXTCoJCIzgPhlQ-10" value="End" style="ellipse;whiteSpace=wrap;html=1;" vertex="1" parent="1">
          <mxGeometry x="312.5" y="545" width="120" height="80" as="geometry" />
        </mxCell>
      </root>
    </mxGraphModel>
  </diagram>
</mxfile>
